<?xml version="1.0" encoding="utf-8"?>
<!-- Generator: Adobe Illustrator 22.0.0, SVG Export Plug-In . SVG Version: 6.00 Build 0)  -->
<svg version="1.1" id="Layer_1" xmlns="http://www.w3.org/2000/svg" xmlns:xlink="http://www.w3.org/1999/xlink" x="0px" y="0px"
	 viewBox="0 0 40 40" style="enable-background:new 0 0 40 40;" xml:space="preserve">
<style type="text/css">
	.st0{fill:#FFFFFF;}
	.st1{fill:none;stroke:#FFFFFF;stroke-linecap:round;stroke-miterlimit:10;}
</style>
<g>
	<path class="st0" d="M23.9,23h-7.8c-0.9,0-1.6,0.7-1.6,1.6V40h1V24.6c0-0.3,0.3-0.6,0.6-0.6h1.8v0.2c0,0.7,0.6,1.3,1.3,1.3h1.6
		c0.7,0,1.3-0.6,1.3-1.3V24h1.8c0.3,0,0.6,0.3,0.6,0.6V40h1V24.6C25.5,23.7,24.8,23,23.9,23z M21.1,24.2c0,0.2-0.1,0.3-0.3,0.3h-1.6
		c-0.2,0-0.3-0.1-0.3-0.3V24h2.2V24.2z"/>
</g>
<path class="st1" d="M14.5,19.8c1.3-1.6,3.3-2.7,5.5-2.7s4.3,1.1,5.5,2.7"/>
<path class="st1" d="M10,17.7c2.1-3.3,5.8-5.4,10-5.4s7.9,2.2,10,5.4"/>
<path class="st1" d="M4.1,14.8C7.3,9.4,13.2,5.7,20,5.7s12.7,3.7,15.9,9.1"/>
</svg>
